<?xml version="1.0" standalone="no"?><!DOCTYPE svg PUBLIC "-//W3C//DTD SVG 1.1//EN" "http://www.w3.org/Graphics/SVG/1.1/DTD/svg11.dtd"><svg class="icon" width="200px" height="200.00px" viewBox="0 0 1024 1024" version="1.1" xmlns="http://www.w3.org/2000/svg"><path d="M369.8 749.4h162.4V831H369.8zM909.6 416H880v80h29.6c1.3 0 2.4-1.1 2.4-2.4v-75.2c0-1.3-1.1-2.4-2.4-2.4z" fill="#A0D3F8" /><path d="M448 320c-52.9 0-96 43.1-96 96s43.1 96 96 96 96-43.1 96-96-43.1-96-96-96z m0 176c-44.1 0-80-35.9-80-80s35.9-80 80-80 80 35.9 80 80-35.9 80-80 80z" fill="#108EE9" /><path d="M488.2 384.9L434.1 439l-24.2-24.2c-3.1-3.1-8.2-3.1-11.3 0s-3.1 8.2 0 11.3l29.9 29.9c1.6 1.6 3.6 2.3 5.7 2.3s4.1-0.8 5.7-2.3l59.8-59.8c3.1-3.1 3.1-8.2 0-11.3s-8.4-3.1-11.5 0z" fill="#108EE9" /><path d="M968 448h-8v-8c0-4.4-3.6-8-8-8h-24v-13.6c0-10.2-8.3-18.4-18.4-18.4H880V218.4c0-32.2-26.2-58.4-58.4-58.4H74.4C42.2 160 16 186.2 16 218.4v472.5c0 32.2 26.2 58.4 58.4 58.4h263.4V832H256c-8.8 0-16 7.2-16 16s7.2 16 16 16h384c8.8 0 16-7.2 16-16s-7.2-16-16-16h-75.8v-82.6h257.4c32.2 0 58.4-26.2 58.4-58.4V512h29.6c10.2 0 18.4-8.3 18.4-18.4V480h24c4.4 0 8-3.6 8-8v-8h8c13.2 0 24 10.8 24 24v320c0 4.4 3.6 8 8 8s8-3.6 8-8V488c0-22.1-17.9-40-40-40zM532.2 831H369.8v-81.6h162.4V831zM848 690.9c0 14.6-11.9 26.4-26.4 26.4H74.4c-14.6 0-26.4-11.9-26.4-26.4V624h800v66.9z m0-82.9H48V218.4c0-14.6 11.9-26.4 26.4-26.4h747.1c14.6 0 26.4 11.9 26.4 26.4V608z m64-168v53.6c0 1.3-1.1 2.4-2.4 2.4H880v-80h29.6c1.3 0 2.4 1.1 2.4 2.4V440z m32 16v8h-16v-16h16v8z" fill="#108EE9" /></svg>