<?xml version="1.0" standalone="no"?><!DOCTYPE svg PUBLIC "-//W3C//DTD SVG 1.1//EN" "http://www.w3.org/Graphics/SVG/1.1/DTD/svg11.dtd"><svg class="icon" width="200px" height="200.00px" viewBox="0 0 1024 1024" version="1.1" xmlns="http://www.w3.org/2000/svg"><path d="M326 286h195l-4 460H326c-23.2 0-42-18.8-42-42V328c0-23.2 18.8-42 42-42z" fill="#FFE1E1" /><path d="M847 748v-52h36v52h-36z m0 28h36v4c0 45.7-36.5 82.9-82 84v-36c25.6-1.1 46-22.1 46-48v-4z m0-108v-52h36v52h-36z m0-80v-52h36v52h-36z m0-80v-52h36v52h-36z m0-80v-52h36v52h-36z m0-80v-52h36v52h-36z m0-80v-16c0-25.8-20.4-46.9-46-48v-36c45.5 1.1 82 38.3 82 84v16h-36z m-74 560v36h-52v-36h52z m0-624h-52v-36h52v36z m-80 624v36h-52v-36h52z m0-624h-52v-36h52v36z m-80 624v36h-51v-36h51z m0-624h-51v-36h51v36zM494.1 864H252c-46.4 0-84-37.6-84-84V252c0-46.4 37.6-84 84-84h242.9l0.1-52c0-9.9 7.1-18 17-18s18 8.1 18 18v800c0 9.9-8.1 18-18 18s-18-8.1-18-18l0.1-52z m0.8-660H252c-26.5 0-48 21.5-48 48v528c0 26.5 21.5 48 48 48h242.1l0.8-624z" fill="#5483E3" /></svg>