<?xml version="1.0" standalone="no"?><!DOCTYPE svg PUBLIC "-//W3C//DTD SVG 1.1//EN" "http://www.w3.org/Graphics/SVG/1.1/DTD/svg11.dtd"><svg class="icon" width="200px" height="200.00px" viewBox="0 0 1024 1024" version="1.1" xmlns="http://www.w3.org/2000/svg"><path d="M198.8 332.9v511.7c0.8 56.3 142.2 101.8 316.6 101.8S831.2 900.8 832 844.6V332.9H198.8z" fill="#5EADEF" /><path d="M198.8 270.2v511.7c0.8 56.3 142.2 101.8 316.6 101.8S831.2 838.1 832 781.9V270.2H198.8z" fill="#E7F5FD" /><path d="M737.5 332.9v479.2c-0.7 51.1-126.1 62.6-278.1 70 15.4 0.7 36.4 0.8 52.4 1.3 193.5 5.9 320.7-49.4 321.5-105.6l-1.3 66.8V332.9h-94.5z" fill="#F5FBFE" /><path d="M273.8 781.9v62.7-511.7h-75.4v511.7-62.7c0.8 56.3 142.2 101.8 316.6 101.8 12.8 0 25.3-0.3 37.7-0.7-156.6-6.1-278.2-49-278.9-101.1z" fill="#B0CEF6" /><path d="M198.8 460.3L474 599.1c23.9 12.1 52.1 12.1 76 0l282-142.2V307.3H198.8v153z" fill="#C3DBF9" /><path d="M897.3 381.2h10v267.6h-10z" fill="#5EADEF" /><path d="M474 567.9L78.6 368.5c-8.9-4.5-13.5-12.9-13.8-21.4-0.4-9.3 0-38.5 0-38.5l410-184.8c23.4-11.8 51.1-11.8 74.5 0l396.1 199.7c2.8 1.4 13.8-14.9 13.8-14.9s0.5 32.8-0.1 39.7c-0.7 8.1-5.3 15.9-13.7 20.2L550 567.9a84.097 84.097 0 0 1-76 0z" fill="#3173E7" /><path d="M474 530.6L78.6 331.2c-18.5-9.3-18.5-35.7 0-45L474.7 86.5c23.4-11.8 51.1-11.8 74.5 0l396.1 199.7c18.5 9.3 18.5 35.7 0 45L550 530.6c-23.9 12-52.1 12-76 0z" fill="#E7F5FD" /><path d="M945.4 286.2L549.2 86.5c-20.3-10.2-43.7-11.6-64.8-4.1-7 2.8-0.6 0.2-16.1 7.3 1.6 0.7 11.8-1.2 20.5-0.2s19.2 4 19.2 4l382.2 192.7c18.5 9.3 18.5 35.7 0 45l-375 189.1s-9.7 4.3-24.5 5.8c-6.4 0.7-22.6 1.3-26.2-0.3 0.6 0.2 21.1 9.6 21.7 9.8 20.9 6.7 43.8 5 63.7-5l395.4-199.4c18.5-9.3 18.5-35.7 0.1-45z" fill="#FAFDFF" /><path d="M486 459.8L216.7 324c-12.6-6.3-12.6-24.3 0-30.6l269.8-136c16-8 34.8-8 50.8 0l269.8 136c12.6 6.3 12.6 24.3 0 30.6L537.8 459.8c-16.3 8.2-35.5 8.2-51.8 0z" fill="#5EADEF" /><path d="M493.6 416.9l-192.9-97.3c-9-4.5-9-17.4 0-21.9L494 200.3c11.4-5.8 24.9-5.8 36.4 0l193.2 97.4c9 4.5 9 17.4 0 21.9l-192.9 97.3c-11.7 5.9-25.4 5.9-37.1 0z" fill="#E7F5FD" /><path d="M901.5 498.8m-26.6 0a26.6 26.6 0 1 0 53.2 0 26.6 26.6 0 1 0-53.2 0Z" fill="#FCCA4C" /><path d="M877.5 498.8c0-14.2 11.2-25.9 25.3-26.6h-1.3c-14.7 0-26.6 11.9-26.6 26.6 0 14.7 11.9 26.6 26.6 26.6h1.3c-14.1-0.7-25.3-12.4-25.3-26.6z" fill="#F99403" /><path d="M901.5 472.2c-0.6 0-1.2 0-1.8 0.1 13.9 0.9 24.8 12.4 24.8 26.5s-11 25.6-24.8 26.5c0.6 0 1.2 0.1 1.8 0.1 14.7 0 26.6-11.9 26.6-26.6 0-14.7-12-26.6-26.6-26.6z" fill="#FDDA82" /><path d="M911 735.2h-16.2c-9.4 0-17-7.7-17-17V590.9c0-9.4 7.7-17 17-17H911c9.4 0 17 7.7 17 17v127.3c0.1 9.3-7.6 17-17 17z" fill="#FCCA4C" /><path d="M881.9 718.2V590.9c0-9.4 7.7-17 17-17h-4c-9.4 0-17 7.7-17 17v127.3c0 9.4 7.7 17 17 17h4c-9.4 0-17-7.7-17-17z" fill="#F99403" /><path d="M877.9 685.5h50.2v13.1h-50.2zM877.9 651.5h50.2v13.1h-50.2zM877.9 617.4h50.2v13.1h-50.2z" fill="#F99403" /><path d="M911 573.9h-6.8c9.4 0 17 7.7 17 17v127.3c0 9.4-7.7 17-17 17h6.8c9.4 0 17-7.7 17-17V590.9c0.1-9.4-7.6-17-17-17z" fill="#FDDA82" /></svg>