<?xml version="1.0" standalone="no"?><!DOCTYPE svg PUBLIC "-//W3C//DTD SVG 1.1//EN" "http://www.w3.org/Graphics/SVG/1.1/DTD/svg11.dtd"><svg class="icon" width="200px" height="200.00px" viewBox="0 0 1024 1024" version="1.1" xmlns="http://www.w3.org/2000/svg"><path d="M807 629.9H217.7c-84.6 0-153.2 68.6-153.2 153.2s68.6 153.2 153.2 153.2H807c84.6 0 153.2-68.6 153.2-153.2S891.6 629.9 807 629.9z m0 212.1H217.7c-32.5 0-58.9-26.4-58.9-58.9s26.4-58.9 58.9-58.9H807c32.5 0 58.9 26.4 58.9 58.9S839.5 842 807 842zM512.3 583.3c143.2 0 259.3-116.1 259.3-259.3 0-143.2-116.1-259.3-259.3-259.3C369.1 64.7 253 180.8 253 324c0 143.2 116.1 259.3 259.3 259.3z m0-424.3c91 0 165 74 165 165s-74 165-165 165-165-74-165-165 74-165 165-165z" fill="#4585F5" /><path d="M512.3 448.8c-51.2 0-106.1-35.5-106.1-88.4 0-19.5 15.8-35.4 35.4-35.4 19.5 0 35.4 15.8 35.4 35.4 0 5.5 17.7 17.7 35.4 17.7 17.6 0 35.4-12.1 35.4-17.7 0-19.5 15.8-35.4 35.4-35.4 19.5 0 35.4 15.8 35.4 35.4-0.2 52.8-55.1 88.4-106.3 88.4z" fill="#29CCB6" /></svg>