<?xml version="1.0" standalone="no"?><!DOCTYPE svg PUBLIC "-//W3C//DTD SVG 1.1//EN" "http://www.w3.org/Graphics/SVG/1.1/DTD/svg11.dtd"><svg class="icon" width="200px" height="200.00px" viewBox="0 0 1024 1024" version="1.1" xmlns="http://www.w3.org/2000/svg"><path d="M712.7 828.7c-40.7 0-79.8-20.7-104.6-55.4-21.8-30.6-29.3-69.2-22.9-118.2 9.8-74.2 14.6-174.2 2.3-218l-2.8-9.9c-11.1-39.6-23.7-84.5-32.1-129.4-17.2-91.6-13.2-161.9 12.6-221.4 19-43.7 57.1-67.8 107.3-67.8 36.7 0 77.5 12.9 111.8 35.4 98.9 64.7 121.7 194 100.4 293.3-13.7 64-22.8 129.3-31.7 196.1l-3 21.9c-3.2 22.9-6.5 46.6-7.8 69.8-0.6 9.6-0.5 19.4-0.4 29.2 0.1 21.5 0.3 43.7-5.7 65.3-5.1 18.3-25.6 79.5-77.4 100.2-14.8 5.9-30.3 8.9-46 8.9z" fill="#44C0D9" /><path d="M672.6 30.4c-29 0-67.7 9.5-87.3 54.7-24 55.2-27.5 121.6-11.2 208.7 8.3 43.9 20.2 86.4 31.7 127.5l2.8 9.9c15.1 53.8 6 167.8-1.7 226.8-5.8 43.8 0.3 76.5 19 102.7 28.6 40.1 80.5 56.6 124.7 38.9 33.7-13.5 55.4-53.2 64.5-85.8 5.2-18.6 5.1-38.4 4.9-59.3-0.1-10.2-0.1-20.5 0.5-30.6 1.4-24 4.7-48.2 8-71.5l3-21.7c8.9-67.3 18.1-133.1 31.9-197.9 19.7-92.1-0.8-211.5-90.9-270.5-30.5-20-67.8-31.9-99.9-31.9z" fill="#005B7D" /><path d="M311.3 1015.4c-15.7 0-31.2-3-46-9-51.7-20.7-72.3-81.9-77.3-100.1-6-21.6-5.9-43.8-5.7-65.3 0.1-9.8 0.1-19.6-0.4-29.2-1.3-23.1-4.6-46.8-7.8-69.7l-3-21.9c-9-66.8-18.1-132.2-31.8-196.2-21.2-99.4 1.6-228.6 100.3-293.3 34.3-22.5 75.1-35.4 111.8-35.4 50.2 0 88.3 24.1 107.3 67.8 25.8 59.4 29.7 129.8 12.6 221.4-8.4 44.9-21 89.7-32.1 129.3l-2.8 9.9c-12.3 43.9-7.4 143.8 2.3 218 6.4 49-1 87.7-22.9 118.2-24.6 34.8-63.8 55.5-104.5 55.5z" fill="#44C0D9" /><path d="M351.4 217.1c-32.1 0-69.5 11.9-99.9 31.8-90.1 59.1-110.6 178.4-90.9 270.5 13.9 64.8 23 130.5 31.9 197.8l3 21.7c3.3 23.4 6.6 47.5 8 71.5 0.6 10.1 0.6 20.3 0.5 30.6-0.1 20.9-0.2 40.7 4.9 59.3 9 32.6 30.7 72.3 64.5 85.8 44.1 17.6 96.1 1.2 124.7-38.9 18.7-26.2 24.7-58.9 19-102.7-7.7-58.9-16.8-172.9-1.7-226.8l2.8-9.9c11.5-41.1 23.4-83.5 31.7-127.5 16.4-87.1 12.8-153.4-11.1-208.7-19.7-45-58.4-54.5-87.4-54.5z" fill="#005B7D" /><path d="M146.4 546.9c3-13.3 7.2-26.3 13.1-39.5 3.1-7.2 6.1-12.8 9.1-18.5 4.2-7.1 7.6-12.5 11.7-18.6 16.2-23.7 36.2-45.4 57.9-64.9 12.6-10.9 25.9-21 39.1-31.3 8.1-6.2 16.9-11.4 25-17.7 4.4-3.4 8.7-7.4 11.9-12 3.2-4.7 4.2-10.2 7.3-14.9 6.6-10.1 19-16.2 29.8-20.6 6.4-2.6 23.7-9.4 26.7 1.2 1.9 6.8-5.8 8.1-10.3 10.1-8 3.4-16 8.7-21.3 15.7-1.7 2.3-2.6 4.9-3.6 7.5 10 6.9 19.4 14.5 28.5 22.4 11 10.1 21.4 20.6 31.2 31.5 19.8 21.7 36.8 45.3 51.1 69.3 16 24.6 25.3 59 18.7 88.4-6.1 29.2-19.6 50.5-30.4 68.9-10.9 18.3-20.9 34.2-28.1 48.4-6.9 14.1-11.2 27.5-12.8 37.9-1.5 10.4-0.8 17.7 0.7 21.5-0.2 1.7 4.5 6.6 3.8 5.9 4.1 4.2 4 11-0.3 15.1-4.2 4.1-11 4-15.1-0.3-0.3-0.9-1.9 0-8.8-9.9-4.9-7.9-8.1-20.4-7.5-34.6 0.6-14.2 3.7-30.3 9.8-48.1 6.2-17.6 15.2-35.7 24.9-54.5 9.4-18.6 18.9-38.2 21.2-57.2 2-18.9-3.5-37-16.3-56.8-13.6-21.2-29.6-41.5-47.3-61-8.9-9.7-18.3-19-28.3-27.9l-8.4-7.2c-19.6 13.5-40.7 30.6-59.5 46.4-20.2 17.1-38.4 35.2-52.9 54.8-3.5 4.6-7.3 10.3-9.9 14.3-3.5 5.6-6.9 11.2-9.2 15.6-5.2 9.8-9.6 20.3-12.7 30.5-6.1 20.7-7.7 41.4-5.3 60.2 2.4 18.9 7.4 35.8 14.1 50.8 6.8 15.4 13.4 29.6 17.8 41.9 9 24.8 8.6 40.8 8.6 40.8v1c-0.1 4.2-3.2 7.8-7.5 8.4-4.8 0.7-9.2-2.6-9.9-7.4 0 0-1.9-12.8-12.8-33.7-5.2-10.5-12.9-22.8-21.9-38-9.2-15.5-18.6-35.3-22.9-58.3-4.6-22.9-4.7-49.1 1-75.6z" fill="#FEC50D" /><path d="M854.8 367.8c-3.6 0-7-1.4-9.6-3.8-2.8-2.6-4.3-6.1-4.5-9.8-0.1-3.8 1.2-7.4 3.8-10.1 2.7-2.9 6.4-4.5 10.3-4.5 3.6 0 7 1.4 9.6 3.8 2.8 2.6 4.3 6.1 4.5 9.8 0.1 3.8-1.2 7.4-3.8 10.1-2.7 2.9-6.4 4.5-10.3 4.5zM835.5 323.5c-3.4 0-6.7-1.3-9.1-3.6-5.4-5-5.7-13.5-0.6-18.9 2.6-2.7 6-4.2 9.8-4.2 3.4 0 6.7 1.3 9.2 3.6 2.6 2.4 4.1 5.8 4.2 9.3 0.1 3.6-1.2 7-3.6 9.6-2.7 2.7-6.1 4.2-9.9 4.2zM807.7 288.3c-3.8 0-7.5-1.4-10.3-4.1-6.1-5.7-6.4-15.3-0.7-21.4 2.9-3.1 6.8-4.8 11-4.8 3.8 0 7.5 1.4 10.3 4.1 6.1 5.7 6.4 15.3 0.7 21.4-2.8 3.1-6.7 4.8-11 4.8zM771.1 255.4c-4.5 0-8.7-1.7-12-4.7-7.1-6.6-7.5-17.8-0.8-24.8 3.4-3.6 7.9-5.6 12.8-5.6 4.5 0 8.7 1.7 12 4.7 7.1 6.6 7.5 17.8 0.8 24.8-3.3 3.7-7.8 5.6-12.8 5.6z" fill="#FFFFFF" /><path d="M877.6 360.2c-3-13.3-7.2-26.3-13.1-39.5-3.1-7.1-6.1-12.8-9.1-18.5-4.1-7.1-7.6-12.5-11.7-18.6-16.2-23.7-36.2-45.5-57.9-65-12.6-10.8-25.9-21-39.1-31.2-8.1-6.3-16.9-11.4-25-17.7-4.4-3.5-8.7-7.4-11.9-12.1-3.2-4.7-4.2-10.2-7.3-14.9-6.6-10.1-19-16.2-29.8-20.6-6.4-2.6-23.7-9.4-26.7 1.2-1.9 6.9 5.8 8.2 10.3 10.1 8 3.4 16 8.7 21.3 15.6 1.7 2.3 2.6 4.9 3.6 7.5-10 6.9-19.4 14.5-28.5 22.5-11 10-21.4 20.6-31.2 31.4-19.8 21.7-36.8 45.3-51.1 69.3-16 24.6-25.3 59-18.7 88.4 6.1 29.2 19.6 50.5 30.4 68.9 10.9 18.3 20.9 34.2 28.2 48.4 6.9 14.2 11.2 27.5 12.8 37.9 1.5 10.4 0.8 17.7-0.7 21.5 0.2 1.7-4.5 6.5-3.8 5.9-4.1 4.2-4 11 0.3 15.1 4.2 4.1 11 3.9 15.1-0.3 0.3-0.9 1.9 0 8.8-9.9 4.9-7.9 8.1-20.4 7.5-34.6-0.6-14.2-3.7-30.3-9.8-48.1-6.2-17.6-15.2-35.7-24.9-54.4-9.4-18.6-18.9-38.2-21.2-57.3-2-18.9 3.5-37 16.3-56.8 13.6-21.1 29.6-41.5 47.3-60.9 8.9-9.7 18.3-19 28.2-27.9l8.4-7.2c19.6 13.5 40.7 30.6 59.5 46.3 20.2 17.1 38.4 35.3 52.9 54.8 3.5 4.7 7.3 10.3 9.9 14.3 3.5 5.6 6.9 11.1 9.2 15.6 5.2 9.7 9.6 20.3 12.7 30.5 6.1 20.7 7.7 41.4 5.3 60.2-2.4 18.9-7.4 35.7-14.1 50.8-6.8 15.4-13.4 29.6-17.8 41.9-9 24.8-8.6 40.8-8.6 40.8v1c0.1 4.2 3.2 7.8 7.5 8.4 4.8 0.7 9.2-2.6 9.9-7.4 0 0 1.9-12.9 12.7-33.7 5.3-10.5 12.9-22.9 22-38 9.2-15.4 18.6-35.3 22.9-58.3 4.6-22.7 4.7-48.9-1-75.4z" fill="#FEC50D" /><path d="M854.8 367.8c-3.6 0-7-1.4-9.6-3.8-2.8-2.6-4.3-6.1-4.5-9.8-0.1-3.8 1.2-7.4 3.8-10.1 2.7-2.9 6.4-4.5 10.3-4.5 3.6 0 7 1.4 9.6 3.8 2.8 2.6 4.3 6.1 4.5 9.8 0.1 3.8-1.2 7.4-3.8 10.1-2.7 2.9-6.4 4.5-10.3 4.5zM835.5 323.5c-3.4 0-6.7-1.3-9.1-3.6-5.4-5-5.7-13.5-0.6-18.9 2.6-2.7 6-4.2 9.8-4.2 3.4 0 6.7 1.3 9.2 3.6 2.6 2.4 4.1 5.8 4.2 9.3 0.1 3.6-1.2 7-3.6 9.6-2.7 2.7-6.1 4.2-9.9 4.2zM807.7 288.3c-3.8 0-7.5-1.4-10.3-4.1-6.1-5.7-6.4-15.3-0.7-21.4 2.9-3.1 6.8-4.8 11-4.8 3.8 0 7.5 1.4 10.3 4.1 6.1 5.7 6.4 15.3 0.7 21.4-2.8 3.1-6.7 4.8-11 4.8zM771.1 255.4c-4.5 0-8.7-1.7-12-4.7-7.1-6.6-7.5-17.8-0.8-24.8 3.4-3.6 7.9-5.6 12.8-5.6 4.5 0 8.7 1.7 12 4.7 7.1 6.6 7.5 17.8 0.8 24.8-3.3 3.7-7.8 5.6-12.8 5.6z" fill="#FFFFFF" /><path d="M171.5 546.6c3.6 0.2 7.1-1 9.8-3.4 2.9-2.5 4.6-5.9 4.9-9.6 0.3-3.8-0.9-7.4-3.3-10.3-2.6-3-6.2-4.8-10.1-4.9-3.6-0.2-7.1 1-9.8 3.4-2.9 2.5-4.6 5.9-4.9 9.6-0.3 3.8 0.9 7.4 3.3 10.3 2.6 3 6.1 4.7 10.1 4.9zM192.7 503.2c3.4 0.2 6.7-1 9.3-3.2 5.6-4.8 6.3-13.3 1.5-18.9-2.4-2.8-5.8-4.5-9.6-4.7-3.4-0.2-6.7 1-9.3 3.2-2.7 2.3-4.4 5.6-4.6 9.1-0.3 3.6 0.8 7 3.2 9.7 2.3 3 5.7 4.7 9.5 4.8zM222 469.3c3.8 0.2 7.6-1.1 10.5-3.6 6.3-5.4 7.1-15 1.7-21.3-2.7-3.2-6.6-5.1-10.8-5.3-3.8-0.2-7.6 1.1-10.5 3.6-6.3 5.4-7.1 15-1.7 21.3 2.7 3.3 6.6 5.1 10.8 5.3zM260 438.1c4.5 0.2 8.8-1.3 12.2-4.2 7.4-6.3 8.2-17.4 1.9-24.8-3.2-3.7-7.7-5.9-12.6-6.1-4.5-0.2-8.8 1.3-12.2 4.2-7.4 6.3-8.2 17.4-1.9 24.8 3.2 3.7 7.7 5.9 12.6 6.1z" fill="#FFFFFF" /></svg>