<?xml version="1.0" standalone="no"?><!DOCTYPE svg PUBLIC "-//W3C//DTD SVG 1.1//EN" "http://www.w3.org/Graphics/SVG/1.1/DTD/svg11.dtd"><svg class="icon" width="200px" height="200.00px" viewBox="0 0 1024 1024" version="1.1" xmlns="http://www.w3.org/2000/svg"><path d="M544 528v-32h-64v32z m0-80h112v-64h-112z m32 16v64h64v-64z m-208-16h112v-64h-112z m80 80v-64h-64v64z m0 96h128v-64h-128z m16 32a112 112 0 0 1-112-112V352h80a608 608 0 0 0 224-48h32v240a112 112 0 0 1-112 112z" fill="#FFFFFF" /><path d="M480 768v128h-64v-48h-64v48h-112c0-80 96-112 192-112zM592 768c96 0 192 32 192 112h-112v-32h-64v48h-64v-128zM336 240l48-48v32h64c208-32 256 0 256 0a16 16 0 0 1 0 32h-64c-32 16-176 64-256 32h-48a32 32 0 0 1 0-48z" fill="#A8CEFB" /><path d="M672 848v48h112c0-80-96-112-192-112h-48v128h64v-64z m-256 0v48h64v-128h-48c-96 0-192 32-192 112h112v-32z m-48-544c80 16 240-16 256-32h64a16 16 0 0 0 0-32c-16-16-48-48-256 0h-64v-48l-48 48a32 32 0 0 0 0 32h32z m96 368h96a112 112 0 0 0 112-112V336h-16a608 608 0 0 1-224 48h-80v160a112 112 0 0 0 112 112z m384 208a176 176 0 0 1-16 48H192a176 176 0 0 1-16-48c0-96 80-160 224-176a176 176 0 0 1-112-144h-16a32 32 0 0 1-32-32v-112a32 32 0 0 1 32-32h16v-80a96 96 0 0 1 0-80c32-80 144-112 160-112h64l-32 32c128-16 224 0 256 32a80 80 0 0 1 16 80v128h16a32 32 0 0 1 32 32v128a32 32 0 0 1-32 32h-16a176 176 0 0 1-112 144c128 0 208 64 208 160z" fill="#305CBC" /><path d="M544 384h112v64h-112zM576 464h64v64h-64zM448 560h128v64h-128zM480 496h64v32h-64zM368 384h112v64h-112zM384 464h64v64h-64z" fill="#305CBC" /></svg>