<?xml version="1.0" standalone="no"?><!DOCTYPE svg PUBLIC "-//W3C//DTD SVG 1.1//EN" "http://www.w3.org/Graphics/SVG/1.1/DTD/svg11.dtd"><svg class="icon" width="200px" height="200.00px" viewBox="0 0 1024 1024" version="1.1" xmlns="http://www.w3.org/2000/svg"><path d="M555.2 632.16c0-19.04-0.8-37.6-2.24-55.84a600.64 600.64 0 0 1 0-73.44L560 330.88c3.84-89.28 92.48-154.4 192-141.76 130.24 16 224 119.04 187.68 266.56l-18.88 81.12c-8.96 38.72-20.48 76.8-32 114.56a708.96 708.96 0 0 0-19.52 76.8q-3.2 16-5.44 32c-5.44 36.8-11.68 73.28-20.16 109.44L832 916.96c-16 69.12-91.04 113.12-170.08 99.68-74.72-12.64-128.96-72.48-126.08-139.52l1.92-46.72a976 976 0 0 1 9.76-97.92 704 704 0 0 0 7.68-100.32z" fill="#58C6FE" /><path d="M708.48 898.24c-74.72-12.64-128.96-72.48-126.08-139.52l1.92-46.72a976 976 0 0 1 9.76-97.92 704 704 0 0 0 7.04-100.32c0-19.04-0.8-37.6-2.24-55.84a600.64 600.64 0 0 1 0-73.44l6.4-150.24a140.16 140.16 0 0 0-45.28 96l-7.36 172.16a600.64 600.64 0 0 0 0 73.44c1.44 18.24 2.24 36.8 2.24 55.84a704 704 0 0 1-7.04 100.32 976 976 0 0 0-9.76 97.92l-1.92 46.72c-2.88 67.04 51.2 126.88 126.08 139.52 79.04 13.28 154.08-30.56 170.08-99.68l10.88-47.04c0.96-4.32 1.76-8.8 2.72-13.12a156.64 156.64 0 0 1-137.44 41.92z" fill="#1F88A0" /><path d="M922.4 294.08l-18.72 80c-10.4 44.8-23.84 88.8-37.6 132.64a820 820 0 0 0-22.56 88.96q-3.68 18.88-6.4 37.28c-6.24 42.56-13.44 84.8-23.2 126.56l-12.64 54.4c-18.56 80-105.28 130.72-196.8 115.36a191.04 191.04 0 0 1-65.28-23.84 147.68 147.68 0 0 0 123.52 110.72c79.04 13.28 154.08-30.56 170.08-99.68l10.88-47.04c8.48-36.16 14.72-72.8 20.16-109.44q2.4-16 5.44-32a709.12 709.12 0 0 1 19.52-76.8c12-37.92 23.52-76 32-114.56l18.88-81.12a215.36 215.36 0 0 0-17.28-161.44z" fill="#2DA8C4" /><path d="M768 760.64a49.44 49.44 0 0 1-6.88 0 16 16 0 0 1 4.16-32c3.84 0 35.68 2.24 48.96-45.76 17.6-64 17.12-281.6-76.16-345.12-32 18.24-151.52 103.04-120.32 327.04 1.12 9.12 7.2 35.36 20.8 41.6a16 16 0 0 1-12.32 29.6c-32-14.72-38.72-61.28-39.2-66.56-38.56-276 144-363.04 145.92-363.84a16 16 0 0 1 14.4 0c122.08 69.12 116.8 320 98.4 385.76-15.52 55.2-53.92 69.28-77.76 69.28z" fill="#FFFFFF" /><path d="M439.84 448c0-19.04 0.8-37.6 2.24-55.84a600.64 600.64 0 0 0 0-73.44l-6.72-172.8C432 56.64 343.04-8.48 242.72 4.32 112 20.8 18.88 123.2 55.04 270.88L73.92 352c8.96 38.72 20.48 76.8 32 114.56A708.96 708.96 0 0 1 125.92 544q3.2 16 5.44 32c5.44 36.8 11.68 73.28 20.16 109.44l10.88 47.04c16 69.12 91.04 113.12 170.08 99.68 74.72-12.64 128.96-72.48 126.08-139.52l-1.92-46.72a976 976 0 0 0-9.76-97.92 704 704 0 0 1-7.04-100z" fill="#58C6FE" /><path d="M286.4 713.44c74.72-12.64 128.96-72.48 126.08-139.52l-1.92-46.72a976 976 0 0 0-10.56-97.92 704 704 0 0 1-7.04-100.32c0-19.04 0.8-37.6 2.24-55.84a600.64 600.64 0 0 0 0-73.44l-6.4-150.24a140.16 140.16 0 0 1 45.28 96l7.36 172.16a600.64 600.64 0 0 1 0 73.44c-1.44 18.24-2.24 36.8-2.24 55.84a704 704 0 0 0 7.04 100.32 976 976 0 0 1 9.76 97.92l1.92 46.72c2.88 67.04-51.2 126.88-126.08 139.52-79.04 13.28-154.08-30.56-170.08-99.68l-10.88-47.04c-0.96-4.32-1.76-8.8-2.72-13.12a156.64 156.64 0 0 0 138.24 41.92z" fill="#1F88A0" /><path d="M72.48 109.12l18.72 80c10.4 44.8 23.84 88.8 37.6 132.64a820 820 0 0 1 22.56 88.96q3.68 18.88 6.4 37.28c6.24 42.56 13.44 84.8 23.2 126.56l12.64 54.4c18.56 80 105.28 130.72 196.8 115.36a191.04 191.04 0 0 0 65.28-23.84A147.68 147.68 0 0 1 332.32 832c-79.04 13.28-154.08-30.56-170.08-99.68l-10.88-47.04c-8.48-36.16-14.72-72.8-20.16-109.44Q128 560 125.6 544a709.12 709.12 0 0 0-19.52-76.8c-12-37.92-23.52-76-32-114.56l-19.36-81.76A215.36 215.36 0 0 1 72.48 109.12z" fill="#2DA8C4" /><path d="M226.4 576c-23.2 0-61.6-13.92-76.96-69.28-18.56-66.72-23.84-316.96 98.24-386.08a16 16 0 0 1 14.4 0c1.92 0.8 184.48 87.84 145.76 364.32 0 4.8-6.72 51.36-39.2 66.24a16 16 0 0 1-13.28-28.96c13.76-6.24 19.84-32 20.8-41.28C407.52 257.92 288 171.36 256 152.8c-93.28 64-93.6 281.6-76 345.12 13.44 48 45.44 46.08 48.96 45.76a16 16 0 0 1 17.6 13.92 16 16 0 0 1-13.28 18.4 49.44 49.44 0 0 1-6.88 0z" fill="#FFFFFF" /></svg>