<?xml version="1.0" standalone="no"?><!DOCTYPE svg PUBLIC "-//W3C//DTD SVG 1.1//EN" "http://www.w3.org/Graphics/SVG/1.1/DTD/svg11.dtd"><svg class="icon" width="200px" height="200.00px" viewBox="0 0 1024 1024" version="1.1" xmlns="http://www.w3.org/2000/svg"><path d="M871.104 557.264c2.304-16.72 3.456-33.312 3.456-49.312s-1.152-32.592-3.456-49.312a39.888 39.888 0 0 1 11.744-34.064l80.336-77.888-83.808-145.568-107.488 30.832a39.648 39.648 0 0 1-35.36-6.864 356.928 356.928 0 0 0-85.072-49.344 39.888 39.888 0 0 1-23.584-27.232L600.8 39.84H433.152l-27.088 108.64a39.808 39.808 0 0 1-23.584 27.232 356.608 356.608 0 0 0-85.072 49.344 39.632 39.632 0 0 1-35.344 6.864l-107.472-30.832-83.824 145.568 80.336 77.888c9.104 8.832 13.472 21.488 11.744 34.064a365.28 365.28 0 0 0-3.456 49.312c0 16 1.168 32.592 3.456 49.312a39.952 39.952 0 0 1-11.744 34.08l-80.336 77.872 83.824 145.584 107.472-30.832a39.728 39.728 0 0 1 35.344 6.864 355.76 355.76 0 0 0 85.072 49.344 39.808 39.808 0 0 1 23.584 27.248l27.088 108.624H600.8l27.072-108.624a39.808 39.808 0 0 1 23.584-27.248 356.384 356.384 0 0 0 85.072-49.344 39.648 39.648 0 0 1 35.36-6.864l107.488 30.832 83.808-145.584-80.336-77.872a39.856 39.856 0 0 1-11.744-34.048m-349.12 149.888c-110.016 0-199.2-89.184-199.2-199.2s89.184-199.2 199.2-199.2 199.2 89.184 199.2 199.2-89.184 199.2-199.2 199.2" fill="#FFFFFF" /><path d="M521.984 229.072c-154.016 0-278.88 124.864-278.88 278.88s124.848 278.88 278.88 278.88c154.016 0 278.88-124.864 278.88-278.88s-124.864-278.88-278.88-278.88m0 478.08c-110.016 0-199.2-89.184-199.2-199.2s89.184-199.2 199.2-199.2 199.2 89.184 199.2 199.2-89.184 199.2-199.2 199.2" fill="#86AEDD" /><path d="M442.304 956.144h19.92v-19.92h-19.92v19.92z m19.92 19.92h19.92v-19.92h-19.92v19.92z m19.92-19.92h19.92v-19.92h-19.92v19.92z m19.92 19.92h19.92v-19.92h-19.92v19.92z m-79.68 0h19.92v-19.92h-19.92v19.92z m99.6-19.92h19.92v-19.92h-19.92v19.92z m19.92 19.92h19.92v-19.92h-19.92v19.92z m59.76-19.92h19.92v-19.92h-19.92v19.92z m-39.84 0h19.904v-19.92h-19.904v19.92z m19.904 19.92h19.92v-19.92h-19.92v19.92z m-99.584-59.744h-19.92v19.904h19.92V916.32z m39.84 0h-19.92v19.904h19.92V916.32z m-99.6 19.904h19.92V916.32h-19.92v19.904z m139.44-19.904h-19.92v19.904h19.92V916.32z m39.84 0h-19.92v19.904h19.92V916.32zM581.728 79.68h19.92V59.76h-19.92V79.68z m-19.904 19.92h19.904V79.68h-19.904v19.92zM541.904 79.68h19.92V59.76h-19.92V79.68z m-19.92 19.92h19.92V79.68h-19.92v19.92z m99.6-19.92h-19.92v19.92h19.92V79.68z m-119.52 0h19.92V59.76h-19.92V79.68z m-19.92 19.92h19.92V79.68h-19.92v19.92zM422.384 79.68h19.92V59.76h-19.92V79.68z m39.84 0h19.92V59.76h-19.92V79.68z m-19.92 19.92h19.92V79.68h-19.92v19.92z m139.424-59.76h-19.904v19.92h19.904V39.84z m-39.824 0h-19.92v19.92h19.92V39.84z m59.76 19.92h19.92V39.84h-19.92v19.92zM502.064 39.84h-19.92v19.92h19.92V39.84z m-39.84 0h-19.92v19.92h19.92V39.84zM111.248 653.088l-17.248 9.952 9.968 17.248 17.248-9.952-9.968-17.248z m-24.544 37.168l9.968 17.264 17.264-9.968-9.968-17.248-17.264 9.952z m44.464-2.656l-17.248 9.952 9.968 17.264 17.248-9.968-9.968-17.248z m-24.544 37.168l9.968 17.248 17.264-9.968-9.968-17.232-17.264 9.952z m-39.84-69.024l9.968 17.264 17.264-9.968-9.968-17.248-17.264 9.952z m84.304 66.352l-17.248 9.952 9.952 17.264 17.248-9.968-9.952-17.248z m-24.544 37.168l9.968 17.248 17.248-9.968-9.968-17.232-17.248 9.952z m57.104 59.04l17.248-9.952-9.968-17.248-17.248 9.952 9.968 17.248z m-12.64-61.712l-17.248 9.952 9.968 17.248 17.248-9.952-9.968-17.248zM146.464 793.76l9.952 17.248 17.264-9.968-9.968-17.248-17.248 9.968z m1.936-116.128l-9.952-17.248-17.248 9.968 9.968 17.248 17.232-9.968z m19.936 34.496l-9.968-17.232-17.248 9.952 9.968 17.248 17.248-9.968z m-49.808-86.256l-17.248 9.968 9.968 17.248 17.248-9.968-9.968-17.248z m69.728 120.752l-9.968-17.232-17.248 9.952 9.952 17.248 17.264-9.968z m9.952 17.264l-17.248 9.952 9.968 17.248 17.248-9.968-9.968-17.232z m734.512-401.072l17.248-9.952-9.968-17.248-17.232 9.968 9.952 17.232z m-37.168-24.544l9.952 17.264 17.264-9.968-9.968-17.248-17.248 9.952z m17.248-9.952l17.248-9.952-9.968-17.248-17.232 9.968 9.952 17.232z m-37.168-24.544l9.952 17.264 17.264-9.968-9.968-17.264-17.248 9.968z m49.792 86.256l17.264-9.968-9.968-17.264-17.248 9.968 9.952 17.264z m-32.544-96.224l17.248-9.952-9.952-17.248-17.248 9.968 9.952 17.232z m-37.184-24.528l9.968 17.264 17.248-9.968-9.968-17.264-17.248 9.968z m4.64-71.68l-17.248 9.968 9.968 17.248 17.232-9.952-9.952-17.264z m12.624 61.712l17.248-9.952-9.952-17.264-17.248 9.968 9.952 17.248z m-27.216-7.296l17.248-9.968-9.952-17.248-17.264 9.968 9.968 17.248z m111.52 73.632l-9.968-17.248-17.248 9.968 9.952 17.248 17.264-9.968z m-19.92-34.496l-9.968-17.248-17.248 9.968 9.952 17.248 17.264-9.968z m39.824 68.992l-9.952-17.248-17.248 9.968 9.952 17.248 17.248-9.968z m-59.744-103.488l-9.968-17.248-17.248 9.968 9.968 17.248 17.248-9.968z m-19.92-34.512l-9.952-17.248-17.264 9.968 9.968 17.248 17.248-9.968z m-44.464 568.944l17.232 9.952 9.968-17.248-17.248-9.952-9.952 17.248z m44.464 2.672l9.952-17.248-17.248-9.968-9.952 17.248 17.248 9.968z m-24.544-37.168l17.248 9.952 9.968-17.232-17.248-9.968-9.968 17.248z m44.464 2.672l9.952-17.248-17.248-9.968-9.952 17.264 17.248 9.952z m-39.84 69.008l9.968-17.248-17.264-9.968-9.952 17.248 17.248 9.968z m15.296-106.176l17.248 9.952 9.952-17.232-17.232-9.968-9.968 17.248z m44.464 2.672l9.952-17.248-17.248-9.968-9.968 17.264 17.264 9.952z m22.576-78.976l-17.232-9.952-9.968 17.248 17.248 9.952 9.952-17.248z m-47.12 41.808l17.248 9.952 9.952-17.248-17.232-9.952-9.968 17.248z m27.2-7.296l17.264 9.952 9.952-17.232-17.248-9.968-9.968 17.248z m-84.304 66.32l-9.952 17.264 17.248 9.952 9.952-17.248-17.248-9.968z m19.936-34.496l-9.952 17.264 17.248 9.952 9.952-17.248-17.248-9.968z m-49.808 86.256l17.248 9.952 9.968-17.248-17.264-9.968-9.952 17.264z m69.728-120.752l-9.968 17.264 17.264 9.952 9.952-17.248-17.248-9.968z m19.92-34.512l-9.968 17.248 17.264 9.968 9.952-17.248-17.248-9.968zM163.712 232.096l17.248 9.968 9.968-17.248-17.248-9.952-9.968 17.232z m24.544 37.184l9.968-17.248-17.248-9.968-9.968 17.248 17.248 9.968z m-44.464-2.672l17.248 9.968 9.952-17.264-17.232-9.952-9.968 17.248z m24.544 37.168l9.968-17.248-17.248-9.968-9.968 17.248 17.248 9.968z m22.592-78.96l17.248 9.968 9.952-17.248-17.248-9.968-9.952 17.248z m-67.04 76.288l17.248 9.968 9.968-17.264-17.248-9.952-9.968 17.248z m24.512 37.168l9.968-17.248-17.248-9.952-9.952 17.248 17.232 9.952z m-64.368 31.84l17.248 9.968 9.968-17.264-17.248-9.952-9.968 17.248z m19.936-34.496l17.248 9.968 9.968-17.264-17.264-9.968-9.952 17.264z m24.528 37.152l9.968-17.248-17.248-9.968-9.968 17.248 17.248 9.968z m17.968-150.624l-9.968 17.264 17.248 9.968 9.968-17.264-17.248-9.968z m-19.92 34.512l-9.968 17.248 17.264 9.968 9.952-17.248-17.248-9.968z m39.84-69.008l-9.968 17.264 17.264 9.968 9.968-17.264-17.264-9.968z m-59.76 103.504l-9.968 17.248 17.264 9.968 9.968-17.248-17.264-9.968z m-19.92 34.496l-9.968 17.248 17.264 9.968 9.968-17.248-17.264-9.968z"  /><path d="M521.984 308.752c-110.016 0-199.2 89.184-199.2 199.2s89.184 199.2 199.2 199.2 199.2-89.184 199.2-199.2-89.184-199.2-199.2-199.2m0 358.56c-88.016 0-159.36-71.344-159.36-159.36 0-88 71.344-159.36 159.36-159.36s159.36 71.344 159.36 159.36c0 88.016-71.344 159.36-159.36 159.36m479.984-15.904l-91.504-88.72c2.448-17.904 3.824-36.144 3.824-54.736s-1.376-36.832-3.824-54.736l91.504-88.704-0.064-0.032c6.416-6.208 8.096-16.16 3.456-24.24l-99.344-172.512a19.744 19.744 0 0 0-22.64-9.12l-0.016-0.08-122.384 35.104a397.632 397.632 0 0 0-94.544-54.832L635.584 15.088l-0.064 0.016A19.84 19.84 0 0 0 616.304 0H417.648a19.84 19.84 0 0 0-19.216 15.104l-0.048-0.016-30.864 123.712a396.896 396.896 0 0 0-94.528 54.832l-122.4-35.104v0.064a19.792 19.792 0 0 0-22.688 9.12L28.576 340.24a19.92 19.92 0 0 0 3.44 24.24l-0.048 0.032 91.488 88.704a403.664 403.664 0 0 0-3.824 54.736c0 18.592 1.376 36.832 3.824 54.736l-91.488 88.72 0.048 0.032a19.936 19.936 0 0 0-3.44 24.24l99.328 172.512a19.84 19.84 0 0 0 22.672 9.12v0.064l122.4-35.104a396.144 396.144 0 0 0 94.528 54.832l30.848 123.712h0.048c2.16 8.64 9.904 15.088 19.216 15.088h198.656a19.84 19.84 0 0 0 19.216-15.088h0.064l30.848-123.712a396 396 0 0 0 94.544-54.832l122.384 35.104 0.016-0.064a19.744 19.744 0 0 0 22.64-9.12l99.344-172.512a19.904 19.904 0 0 0-3.456-24.24l0.096-0.032z m-122.592 163.392l-107.488-30.832a39.664 39.664 0 0 0-35.36 6.88 356.864 356.864 0 0 1-85.072 49.328 39.872 39.872 0 0 0-23.584 27.248l-27.072 108.624H433.152l-27.088-108.624a39.808 39.808 0 0 0-23.584-27.248 356.56 356.56 0 0 1-85.072-49.328 39.552 39.552 0 0 0-35.344-6.88l-107.472 30.832-83.824-145.584 80.336-77.872a39.952 39.952 0 0 0 11.744-34.08c-2.288-16.736-3.456-33.312-3.456-49.312s1.168-32.592 3.456-49.312a39.888 39.888 0 0 0-11.744-34.064l-80.336-77.888 83.824-145.584 107.472 30.848a39.632 39.632 0 0 0 35.344-6.88 356.304 356.304 0 0 1 85.072-49.344 39.808 39.808 0 0 0 23.584-27.248l27.088-108.64H600.8l27.072 108.64a39.84 39.84 0 0 0 23.584 27.248c30.4 12.384 59.024 28.992 85.072 49.344a39.648 39.648 0 0 0 35.36 6.88l107.488-30.848 83.808 145.584-80.336 77.888a39.856 39.856 0 0 0-11.744 34.064c2.304 16.72 3.456 33.312 3.456 49.312s-1.152 32.576-3.456 49.312a39.952 39.952 0 0 0 11.744 34.08l80.336 77.872-83.808 145.584z"  /></svg>